<?xml version="1.0"?>
<svg xmlns="http://www.w3.org/2000/svg" xmlns:xlink="http://www.w3.org/1999/xlink" version="1.1" id="Capa_1" x="0px" y="0px" viewBox="0 0 512 512" style="enable-background:new 0 0 512 512;" xml:space="preserve" width="512px" height="512px" class=""><g><polygon style="fill:#E2FFE2" points="502.154,472.615 9.847,472.615 256,39.385 " data-original="#EDEEF0" class="active-path" data-old_color="#EDEEF0"/><path d="M510.715,467.751L264.561,34.521c-1.75-3.08-5.019-4.982-8.56-4.982c-3.542,0-6.811,1.902-8.56,4.982L23.574,428.524  c-0.004,0.007-0.007,0.013-0.011,0.019L1.285,467.751c-1.732,3.047-1.712,6.787,0.05,9.817c1.764,3.03,5.005,4.894,8.511,4.894  h492.308c3.506,0,6.747-1.864,8.51-4.894C512.427,474.537,512.447,470.799,510.715,467.751z M26.765,462.769l11.189-19.692H78.77  c5.438,0,9.846-4.408,9.846-9.846s-4.408-9.846-9.846-9.846H49.143L256,59.316l229.235,403.453H26.765z" data-original="#000000" class="" style="fill:#000000" data-old_color="#000000"/><path d="M117.396,429.47c-0.246-0.601-0.542-1.172-0.906-1.703c-0.354-0.542-0.768-1.044-1.221-1.497  c-0.453-0.453-0.955-0.866-1.497-1.221c-0.532-0.354-1.103-0.66-1.703-0.906c-0.591-0.246-1.211-0.443-1.841-0.561  c-1.27-0.256-2.57-0.256-3.84,0c-0.63,0.118-1.25,0.315-1.841,0.561c-0.601,0.246-1.172,0.551-1.703,0.906  c-0.542,0.354-1.044,0.768-1.497,1.221s-0.866,0.955-1.221,1.497c-0.354,0.532-0.66,1.103-0.906,1.703  c-0.246,0.591-0.433,1.211-0.561,1.841c-0.128,0.63-0.197,1.28-0.197,1.92s0.069,1.29,0.197,1.92s0.315,1.25,0.561,1.841  c0.246,0.601,0.551,1.172,0.906,1.703c0.354,0.542,0.768,1.044,1.221,1.497s0.955,0.866,1.497,1.221  c0.532,0.354,1.103,0.66,1.703,0.906c0.591,0.246,1.211,0.443,1.841,0.561c0.63,0.128,1.28,0.197,1.92,0.197  c0.64,0,1.29-0.069,1.92-0.197c0.63-0.118,1.25-0.315,1.841-0.561c0.601-0.246,1.172-0.551,1.703-0.906  c0.542-0.354,1.044-0.768,1.497-1.221c0.453-0.453,0.866-0.955,1.221-1.497c0.364-0.532,0.66-1.103,0.906-1.703  c0.246-0.591,0.443-1.211,0.571-1.841c0.128-0.63,0.187-1.28,0.187-1.92s-0.059-1.29-0.187-1.92  C117.839,430.68,117.642,430.06,117.396,429.47z" data-original="#000000" class="" style="fill:#000000" data-old_color="#000000"/></g> </svg>
