<?xml version="1.0" encoding="iso-8859-1"?>
<!-- Generator: Adobe Illustrator 19.0.0, SVG Export Plug-In . SVG Version: 6.00 Build 0)  -->
<svg version="1.1" id="Capa_1" xmlns="http://www.w3.org/2000/svg" xmlns:xlink="http://www.w3.org/1999/xlink" x="0px" y="0px"
	 viewBox="0 0 512 512" style="enable-background:new 0 0 512 512;" xml:space="preserve">
<polygon style="fill:#898998;" points="30.001,393.96 256.001,502.001 482.001,393.96 256.001,285.919 "/>
<polygon style="fill:#FFB954;" points="30.001,302.01 256.001,410.051 482.001,302.01 256.001,193.969 "/>
<polygon style="fill:#E889C3;" points="30.001,210.263 256.001,318.304 482.001,210.263 256.001,102.222 "/>
<polygon style="fill:#72D8FF;" points="30.001,118.042 256.001,226.083 482.001,118.042 256.001,10.001 "/>
<path d="M352.581,445.831c-2.63,0-5.21,1.06-7.07,2.93c-1.86,1.86-2.93,4.44-2.93,7.07s1.07,5.21,2.93,7.069
	c1.86,1.86,4.44,2.931,7.07,2.931c2.64,0,5.21-1.07,7.08-2.931c1.86-1.859,2.92-4.439,2.92-7.069s-1.06-5.21-2.92-7.07
	C357.791,446.89,355.221,445.831,352.581,445.831z"/>
<path d="M492.001,210.263c0-3.852-2.212-7.361-5.687-9.022l-77.582-37.089l77.582-37.089c3.475-1.661,5.687-5.17,5.687-9.022
	s-2.212-7.361-5.687-9.022l-226-108.041c-2.728-1.304-5.898-1.304-8.626,0l-73.637,35.203c-4.983,2.382-7.091,8.352-4.709,13.335
	c2.382,4.982,8.353,7.09,13.335,4.709l69.324-33.14l202.814,96.957l-202.814,96.957L53.186,118.042l58.022-27.738
	c4.983-2.382,7.091-8.353,4.709-13.335c-2.382-4.983-8.354-7.091-13.335-4.709l-76.895,36.76c-3.475,1.661-5.687,5.17-5.687,9.022
	s2.212,7.361,5.687,9.022l77.582,37.089l-77.581,37.088c-3.475,1.661-5.687,5.17-5.687,9.022s2.212,7.361,5.687,9.022l77.086,36.852
	l-77.086,36.851c-3.475,1.662-5.687,5.171-5.687,9.023s2.212,7.361,5.687,9.022l77.296,36.952l-77.296,36.952
	c-3.475,1.661-5.687,5.171-5.687,9.022s2.212,7.361,5.687,9.022l226,108.041c1.364,0.651,2.838,0.978,4.313,0.978
	c1.475,0,2.949-0.326,4.313-0.978l54.06-25.844c4.983-2.383,7.091-8.353,4.709-13.336c-2.382-4.982-8.354-7.091-13.335-4.709
	l-49.747,23.784L53.186,393.96l72.141-34.487c0.273-0.131,0.535-0.277,0.791-0.428l125.57,60.03
	c1.364,0.651,2.838,0.978,4.313,0.978c1.475,0,2.949-0.326,4.313-0.978l125.57-60.03c0.256,0.152,0.517,0.297,0.791,0.428
	l72.141,34.487l-72.141,34.487c-4.983,2.383-7.091,8.353-4.709,13.336c1.717,3.591,5.297,5.688,9.029,5.688
	c1.446,0,2.915-0.314,4.306-0.979l91.013-43.51c3.475-1.662,5.687-5.171,5.687-9.022s-2.212-7.36-5.687-9.022l-77.296-36.952
	l77.296-36.952c3.475-1.661,5.687-5.171,5.687-9.022s-2.212-7.36-5.687-9.022l-77.086-36.851l77.086-36.852
	C489.789,217.624,492.001,214.115,492.001,210.263z M386.675,267.523l72.141,34.487l-202.815,96.958L53.186,302.011l72.141-34.487
	c0.205-0.098,0.398-0.211,0.593-0.321l125.768,60.124c1.364,0.651,2.838,0.978,4.313,0.978c1.475,0,2.949-0.326,4.313-0.978
	l125.768-60.124C386.277,267.312,386.469,267.425,386.675,267.523z M256.001,307.22L53.186,210.263l72.202-34.517
	c0.344-0.165,0.672-0.35,0.988-0.547l125.311,59.906c1.364,0.652,2.838,0.978,4.313,0.978s2.949-0.326,4.313-0.978l125.311-59.906
	c0.316,0.197,0.644,0.383,0.988,0.547l72.202,34.517L256.001,307.22z"/>
<path d="M146.711,72.251c2.63,0,5.21-1.07,7.07-2.93s2.93-4.44,2.93-7.07c0-2.63-1.07-5.21-2.93-7.07
	c-1.86-1.86-4.44-2.93-7.07-2.93s-5.21,1.07-7.07,2.93s-2.93,4.44-2.93,7.07c0,2.63,1.07,5.21,2.93,7.07
	C141.501,71.18,144.071,72.251,146.711,72.251z"/>
<g>
</g>
<g>
</g>
<g>
</g>
<g>
</g>
<g>
</g>
<g>
</g>
<g>
</g>
<g>
</g>
<g>
</g>
<g>
</g>
<g>
</g>
<g>
</g>
<g>
</g>
<g>
</g>
<g>
</g>
</svg>
