<?xml version="1.0"?>
<svg xmlns="http://www.w3.org/2000/svg" xmlns:xlink="http://www.w3.org/1999/xlink" version="1.1" id="Capa_1" x="0px" y="0px" viewBox="0 0 512.002 512.002" style="enable-background:new 0 0 512.002 512.002;" xml:space="preserve" width="512px" height="512px" class=""><g><path style="fill:#EB7D16" d="M387.676,147.589c-6.214,0-12.056-2.42-16.451-6.816c-9.072-9.072-9.072-23.831,0-32.903  l90.68-90.681l1.419,1.28c0.428,0.386,0.845,0.782,1.261,1.198L492.33,47.41c0.416,0.416,0.813,0.834,1.198,1.261l1.28,1.419  l-90.681,90.68C399.733,145.168,393.891,147.589,387.676,147.589z" data-original="#5A6B96" class="active-path" data-old_color="#5A6B96"/><path style="fill:#FB5252" d="M294.063,134.291L408.686,19.667c7.462-7.462,17.386-11.573,27.945-11.573  c9.926,0,19.41,3.689,26.706,10.386l1.547,1.42l-90.814,90.813c-7.502,7.502-7.502,19.711,0,27.213  c3.635,3.636,8.467,5.637,13.606,5.637c5.139,0,9.972-2.002,13.607-5.637l90.813-90.814l1.42,1.547  c14.349,15.632,13.828,39.637-1.187,54.651L377.707,217.933L294.063,134.291z" data-original="#6FD2F7" class="" data-old_color="#6FD2F7"/><polygon style="fill:#D4D4D4;" points="258.231,170.123 296.658,131.686 380.311,215.34 341.875,253.766 " data-original="#D4D4D4"/><rect x="121.905" y="224.923" transform="matrix(0.7071 -0.7071 0.7071 0.7071 -134.1081 244.3703)" style="fill:#FB5252" width="212.044" height="118.29" data-original="#6FD2F7" class="" data-old_color="#6FD2F7"/><rect x="109.429" y="316.265" transform="matrix(0.7071 -0.7071 0.7071 0.7071 -225.4461 206.5455)" style="fill:#D4D4D4;" width="54.341" height="118.29" data-original="#D4D4D4"/><path style="fill:#EFEFEF;" d="M121.243,464.742c-6.228,0-12.083-2.421-16.487-6.819l-0.589-0.59v-0.012l-49.461-49.46l-0.599-0.589  c-9.11-9.121-9.11-23.913-0.031-33.004l24.33-24.319l83.642,83.642l-24.317,24.329C133.325,462.321,127.471,464.742,121.243,464.742  z" data-original="#EFEFEF"/><path style="fill:#D4D4D4;" d="M70.567,486.573c-5.243,0-10.205-2.007-13.973-5.651l-25.494-25.495  c-7.601-7.858-7.495-20.498,0.211-28.205l24.216-24.216l53.455,53.464l-24.206,24.217C80.98,484.482,75.934,486.573,70.567,486.573z  " data-original="#D4D4D4"/><polygon style="fill:#FB5252" points="12.256,499.741 7.917,471.177 30.228,448.866 63.132,481.769 40.82,504.079 " data-original="#6FD2F7" class="" data-old_color="#6FD2F7"/><path d="M499.178,42.878l-30.059-30.059c-0.351-0.351-0.732-0.663-1.128-0.956c-18.83-16.552-47.174-15.71-64.996,2.114  l-113.2,113.201c-0.025,0.025-0.045,0.052-0.069,0.077c-0.059,0.056-0.125,0.107-0.183,0.166l-35.581,35.591  c-0.002,0.002-0.003,0.003-0.005,0.005L106.872,310.1l-35.581,35.581c-0.003,0.003-0.006,0.007-0.009,0.01l-22.901,22.891  c-9.731,9.743-11.698,24.352-5.902,36.091l-16.858,16.857c-7.432,7.432-9.815,18.143-7.113,27.675L2.946,464.767  c-2.261,2.261-3.312,5.463-2.832,8.624l3.963,26.094c0.662,4.355,4.08,7.773,8.435,8.435l26.095,3.963  c0.504,0.076,1.009,0.114,1.511,0.114c2.647,0,5.212-1.046,7.112-2.946l15.562-15.561c2.534,0.718,5.152,1.079,7.769,1.079  c7.227,0,14.451-2.737,19.908-8.195l16.845-16.852c4.374,2.162,9.149,3.251,13.928,3.251c8.032,0,16.065-3.054,22.181-9.163  l22.896-22.907l35.575-35.574c0.002-0.002,0.003-0.003,0.005-0.005l147.09-147.091l35.591-35.581  c0.058-0.058,0.109-0.123,0.166-0.183c0.025-0.024,0.052-0.045,0.077-0.069L498.024,109c17.844-17.845,18.666-46.234,2.112-64.999  C499.84,43.61,499.529,43.228,499.178,42.878z M462.007,34.16l15.831,15.831l-82.247,82.247c-2.115,2.116-4.925,3.28-7.915,3.28  c-2.99,0-5.8-1.165-7.915-3.281c-4.365-4.365-4.365-11.466,0-15.831L462.007,34.16z M194.783,383.786l-66.571-66.572  l132.864-132.864l66.571,66.571L194.783,383.786z M36.6,491.229l-13.744-2.088l-2.087-13.743l9.46-9.46l15.832,15.832L36.6,491.229z   M76.24,472.15c-3.073,3.072-8.11,3.119-11.238,0.107l-25.251-25.25c-3.024-3.127-2.982-8.174,0.095-11.252l15.681-15.681  l36.387,36.393L76.24,472.15z M129.198,449.381c-4.38,4.375-11.503,4.381-15.86,0.048c-0.027-0.027-0.049-0.057-0.076-0.085  l-50.61-50.61c-0.021-0.021-0.045-0.039-0.067-0.061c-4.347-4.39-4.338-11.5,0.025-15.87l15.793-15.785l66.575,66.575  L129.198,449.381z M159.203,419.367l-66.571-66.571l21.354-21.354l66.572,66.572L159.203,419.367z M341.876,236.694l-66.573-66.573  l21.355-21.362l66.579,66.579L341.876,236.694z M483.794,94.775L377.707,200.862l-66.572-66.572L417.222,28.203  c7.76-7.761,18.979-9.944,28.711-6.423l-80.398,80.398c-12.209,12.209-12.209,32.076-0.001,44.283  c5.915,5.916,13.779,9.174,22.143,9.174s16.229-3.258,22.143-9.173l80.409-80.409C493.743,75.767,491.565,87.004,483.794,94.775z" data-original="#000000" class="" style="fill:#000000"/><path d="M242.726,290.471l-52.21,52.211c-3.928,3.928-3.928,10.298,0,14.227c1.965,1.964,4.539,2.946,7.113,2.946  c2.574,0,5.15-0.983,7.113-2.946l52.21-52.211c3.928-3.928,3.928-10.298,0-14.227C253.024,286.544,246.655,286.544,242.726,290.471z  " data-original="#000000" class="" style="fill:#000000"/><path d="M268.483,268.882c-12.946,0-12.967,20.119,0,20.119C281.429,289.001,281.451,268.882,268.483,268.882z" data-original="#000000" class="" style="fill:#000000"/></g> </svg>
