<?xml version="1.0" encoding="iso-8859-1"?>
<!-- Generator: Adobe Illustrator 19.0.0, SVG Export Plug-In . SVG Version: 6.00 Build 0)  -->
<svg version="1.1" id="Layer_1" xmlns="http://www.w3.org/2000/svg" xmlns:xlink="http://www.w3.org/1999/xlink" x="0px" y="0px"
	 viewBox="0 0 512 512" style="enable-background:new 0 0 512 512;" xml:space="preserve">
<polygon style="fill:#E6E6E6;" points="436.664,131.33 380.67,75.337 303.982,82.396 429.604,208.018 "/>
<g>
	
		<rect x="384.372" y="66.424" transform="matrix(0.7071 0.7071 -0.7071 0.7071 186.4342 -274.0001)" style="fill:#B3B3B3;" width="79.186" height="43.244"/>
	
		<rect x="388.941" y="48.696" transform="matrix(0.7071 0.7071 -0.7071 0.7071 175.9743 -299.2489)" style="fill:#B3B3B3;" width="120.543" height="28.2"/>
</g>
<polygon style="fill:#FFBA57;" points="429.604,208.018 303.982,82.396 244.941,133.69 378.31,267.06 "/>
<polygon style="fill:#E6E6E6;" points="10.199,337.628 174.372,501.801 195.384,477.615 34.385,316.616 "/>
<polygon style="fill:#FFBA57;" points="98.405,260.997 34.385,316.616 195.384,477.615 251.004,413.595 "/>
<polygon style="fill:#E8655A;" points="378.31,267.06 244.941,133.69 98.405,260.997 251.004,413.595 "/>
<g>
	<path style="fill:#603813;" d="M437.303,214.707c0,0-0.01-0.013-0.014-0.019c1.373-1.582,2.272-3.565,2.471-5.735l6.721-73.017
		l20.756-20.756l7.411,7.411c1.992,1.991,4.602,2.987,7.212,2.987c2.61,0,5.221-0.996,7.212-2.987l19.94-19.94
		c3.983-3.983,3.983-10.441,0-14.425L423.775,2.987c-3.983-3.982-10.441-3.982-14.425,0l-19.94,19.94
		c-3.983,3.983-3.983,10.441,0,14.425l7.411,7.411l-20.756,20.756l-73.017,6.721c-2.171,0.2-4.155,1.101-5.738,2.474
		c-0.002-0.002-0.016-0.017-0.016-0.017L3.51,329.928c-2.136,1.855-3.404,4.514-3.503,7.341c-0.1,2.827,0.98,5.569,2.98,7.57
		l164.173,164.173c1.916,1.915,4.512,2.987,7.212,2.987c0.119,0,0.239-0.002,0.358-0.006c2.827-0.099,5.486-1.368,7.341-3.503
		L437.303,214.707z M376.84,85.932l49.227,49.227l-4.628,50.272l-94.87-94.872L376.84,85.932z M377.786,252.111L259.889,134.214
		l43.604-37.883l112.176,112.176L377.786,252.111z M250.479,398.647L113.354,261.52l131.099-113.896l119.923,119.923
		L250.479,398.647z M173.848,486.852l-148.7-148.7l8.749-7.6l147.553,147.553L173.848,486.852z M194.86,462.667L49.333,317.141
		l48.584-42.208l139.152,139.152L194.86,462.667z M436.664,116.906l-41.569-41.569l16.15-16.15l41.569,41.569L436.664,116.906z
		 M411.047,30.139l5.517-5.517l70.814,70.814l-5.517,5.517L411.047,30.139z"/>
	<path style="fill:#603813;" d="M245.449,348.316l-2.658-2.658c-3.983-3.983-10.441-3.983-14.425,0
		c-3.983,3.983-3.983,10.441,0,14.425l2.658,2.658c1.992,1.992,4.602,2.987,7.212,2.987s5.221-0.995,7.212-2.987
		C249.432,358.758,249.432,352.299,245.449,348.316z"/>
	<path style="fill:#603813;" d="M153.061,255.927c-3.983-3.983-10.441-3.983-14.425,0c-3.983,3.983-3.983,10.441,0,14.425
		l69.125,69.125c1.992,1.992,4.602,2.987,7.212,2.987s5.221-0.995,7.212-2.987c3.983-3.983,3.983-10.441,0-14.425L153.061,255.927z"
		/>
</g>
<g>
</g>
<g>
</g>
<g>
</g>
<g>
</g>
<g>
</g>
<g>
</g>
<g>
</g>
<g>
</g>
<g>
</g>
<g>
</g>
<g>
</g>
<g>
</g>
<g>
</g>
<g>
</g>
<g>
</g>
</svg>
