<?xml version="1.0" encoding="iso-8859-1"?>
<!-- Generator: Adobe Illustrator 19.0.0, SVG Export Plug-In . SVG Version: 6.00 Build 0)  -->
<svg version="1.1" id="Capa_1" xmlns="http://www.w3.org/2000/svg" xmlns:xlink="http://www.w3.org/1999/xlink" x="0px" y="0px"
	 viewBox="0 0 511.997 511.997" style="enable-background:new 0 0 511.997 511.997;" xml:space="preserve">
<path id="SVGCleanerId_0" d="M483.907,2.496c-3.327-3.327-8.736-3.327-12.064,0l-45.158,45.158l-11.031-11.031
	c-3.327-3.327-8.736-3.327-12.064,0L53.793,386.419c-0.793,0.785-1.416,1.715-1.843,2.747L9.941,489.993l-7.337,7.337
	c-3.387,3.276-3.481,8.677-0.213,12.064c3.268,3.387,8.677,3.481,12.064,0.213c0.068-0.068,0.137-0.136,0.213-0.213l7.337-7.337
	l100.827-42.01c1.032-0.427,1.962-1.049,2.747-1.843l309.638-309.638l13.531,13.531L326.805,284.039
	c-3.387,3.276-3.481,8.677-0.205,12.064c3.276,3.387,8.677,3.481,12.064,0.205c0.068-0.068,0.137-0.137,0.205-0.205l127.974-127.974
	c3.327-3.327,3.327-8.736,0-12.064l-19.563-19.563l28.095-28.095c3.327-3.336,3.327-8.736,0-12.064l-11.031-11.031l45.158-45.158
	c3.327-3.336,3.327-8.736,0-12.064L483.907,2.496z M71.889,392.451l107.379-107.379l47.658,47.658L119.547,440.108L71.889,392.451z
	 M62.803,407.492l41.703,41.703L33.01,478.987L62.803,407.492z M238.989,320.665l-47.658-47.658L375.495,88.844l47.658,47.658
	L238.989,320.665z M435.217,124.438L387.559,76.78l22.063-22.063l47.658,47.658L435.217,124.438z M452.28,73.248l-13.531-13.531
	l39.126-39.126l13.531,13.531L452.28,73.248z"/>
<rect x="161.419" y="145.456" transform="matrix(-0.7071 0.7071 -0.7071 -0.7071 686.3027 91.0897)" style="fill:#4398D1;" width="325.734" height="84.454"/>
<rect x="64.947" y="320.351" transform="matrix(-0.7071 0.7071 -0.7071 -0.7071 511.4321 513.3137)" style="fill:#126099;" width="168.916" height="84.454"/>
<path style="fill:#4398D1;" d="M119.547,452.172l-59.721-59.721l-34.041,81.699l-23.18,23.18c-3.387,3.276-3.481,8.677-0.213,12.064
	c3.268,3.387,8.677,3.481,12.064,0.213c0.068-0.068,0.137-0.136,0.213-0.213l23.18-23.18L119.547,452.172z"/>
<path style="fill:#126099;" d="M332.837,298.603c-4.709,0-8.532-3.822-8.532-8.532c0-2.261,0.896-4.428,2.5-6.032l121.943-121.943
	l-79.284-79.284c-3.276-3.387-3.182-8.788,0.213-12.064c3.31-3.191,8.549-3.191,11.85,0l85.316,85.316
	c3.327,3.327,3.327,8.736,0,12.064L338.869,296.103C337.274,297.698,335.098,298.603,332.837,298.603z"/>
<rect x="428.91" y="28.851" transform="matrix(-0.7071 0.7071 -0.7071 -0.7071 827.1823 -248.7291)" style="fill:#87CED9;" width="72.39" height="36.199"/>
<g>
	
		<rect x="184.677" y="201.606" transform="matrix(-0.7071 0.7071 -0.7071 -0.7071 702.3354 154.5259)" style="fill:#3E8CC7;" width="268.974" height="42.231"/>
	<polygon style="fill:#3E8CC7;" points="411.388,100.609 441.249,130.47 469.343,102.375 452.28,85.312 439.483,72.515 	"/>
</g>
<rect x="79.879" y="356.396" transform="matrix(-0.7071 0.7071 -0.7071 -0.7071 547.4822 528.248)" style="fill:#10578A;" width="168.916" height="42.231"/>
<path style="fill:#3E8CC7;" d="M2.603,509.394c3.327,3.327,8.736,3.327,12.064,0l23.18-23.18l81.699-34.041l-29.861-29.861
	L2.603,509.394z"/>
<rect x="435.282" y="44.27" transform="matrix(-0.7071 0.7071 -0.7071 -0.7071 842.5633 -242.3659)" style="fill:#6CBBC7;" width="72.39" height="18.095"/>
<g>
	<path id="SVGCleanerId_0_1_" d="M483.907,2.496c-3.327-3.327-8.736-3.327-12.064,0l-45.158,45.158l-11.031-11.031
		c-3.327-3.327-8.736-3.327-12.064,0L53.793,386.419c-0.793,0.785-1.416,1.715-1.843,2.747L9.941,489.993l-7.337,7.337
		c-3.387,3.276-3.481,8.677-0.213,12.064c3.268,3.387,8.677,3.481,12.064,0.213c0.068-0.068,0.137-0.136,0.213-0.213l7.337-7.337
		l100.827-42.01c1.032-0.427,1.962-1.049,2.747-1.843l309.638-309.638l13.531,13.531L326.805,284.039
		c-3.387,3.276-3.481,8.677-0.205,12.064c3.276,3.387,8.677,3.481,12.064,0.205c0.068-0.068,0.137-0.137,0.205-0.205
		l127.974-127.974c3.327-3.327,3.327-8.736,0-12.064l-19.563-19.563l28.095-28.095c3.327-3.336,3.327-8.736,0-12.064l-11.031-11.031
		l45.158-45.158c3.327-3.336,3.327-8.736,0-12.064L483.907,2.496z M71.889,392.451l107.379-107.379l47.658,47.658L119.547,440.108
		L71.889,392.451z M62.803,407.492l41.703,41.703L33.01,478.987L62.803,407.492z M238.989,320.665l-47.658-47.658L375.495,88.844
		l47.658,47.658L238.989,320.665z M435.217,124.438L387.559,76.78l22.063-22.063l47.658,47.658L435.217,124.438z M452.28,73.248
		l-13.531-13.531l39.126-39.126l13.531,13.531L452.28,73.248z"/>
</g>
<g>
</g>
<g>
</g>
<g>
</g>
<g>
</g>
<g>
</g>
<g>
</g>
<g>
</g>
<g>
</g>
<g>
</g>
<g>
</g>
<g>
</g>
<g>
</g>
<g>
</g>
<g>
</g>
<g>
</g>
</svg>
